<svg width="117" height="32" viewBox="0 0 117 20" fill="none" xmlns="http://www.w3.org/2000/svg">
<path d="M1.378 18C1.20467 18 1.118 17.9047 1.118 17.714V1.256C1.118 1.06533 1.196 0.969999 1.352 0.969999H8.268C8.424 0.969999 8.502 1.06533 8.502 1.256V3.154C8.502 3.34467 8.424 3.44 8.268 3.44H3.848V8.172H7.878C8.034 8.172 8.112 8.26733 8.112 8.458V10.252C8.112 10.4427 8.034 10.538 7.878 10.538H3.848V15.53H8.268C8.424 15.53 8.502 15.6253 8.502 15.816V17.714C8.502 17.9047 8.424 18 8.268 18H1.378ZM14.7572 18.156C13.2146 18.156 12.0359 17.7053 11.2212 16.804C10.4239 15.8853 10.0252 14.464 10.0252 12.54V6.43C10.0252 4.558 10.4239 3.154 11.2212 2.218C12.0359 1.282 13.2146 0.814 14.7572 0.814C15.8319 0.814 16.7332 1.05667 17.4612 1.542C18.1892 2.02733 18.7092 2.712 19.0212 3.596C19.3506 4.48 19.4459 5.52 19.3072 6.716C19.2726 6.88933 19.1946 6.976 19.0732 6.976H16.8112C16.6379 6.976 16.5686 6.88067 16.6032 6.69C16.6899 5.58067 16.5859 4.74 16.2912 4.168C15.9966 3.596 15.4766 3.31 14.7312 3.31C14.0552 3.31 13.5526 3.56133 13.2232 4.064C12.8939 4.56667 12.7292 5.39 12.7292 6.534V12.384C12.7292 13.5627 12.8939 14.4033 13.2232 14.906C13.5699 15.4087 14.0812 15.66 14.7572 15.66C15.5372 15.66 16.0572 15.3567 16.3172 14.75C16.5772 14.126 16.6812 13.3027 16.6292 12.28C16.6119 12.072 16.6812 11.968 16.8372 11.968H19.0472C19.2032 11.968 19.2986 12.072 19.3332 12.28C19.4719 14.1 19.1512 15.5387 18.3712 16.596C17.6086 17.636 16.4039 18.156 14.7572 18.156ZM21.6143 18C21.441 18 21.3543 17.9047 21.3543 17.714V1.256C21.3543 1.06533 21.441 0.969999 21.6143 0.969999H23.8243C23.9977 0.969999 24.0843 1.06533 24.0843 1.256V8.068H27.9583V1.256C27.9583 1.06533 28.0363 0.969999 28.1923 0.969999H30.4023C30.5757 0.969999 30.6623 1.06533 30.6623 1.256V17.714C30.6623 17.9047 30.5757 18 30.4023 18H28.1923C28.0363 18 27.9583 17.9047 27.9583 17.714V10.512H24.0843V17.714C24.0843 17.9047 23.9977 18 23.8243 18H21.6143ZM37.4311 18.156C35.8884 18.156 34.7097 17.7053 33.8951 16.804C33.0977 15.9027 32.6991 14.5593 32.6991 12.774V6.222C32.6991 4.41933 33.0977 3.06733 33.8951 2.166C34.7097 1.26467 35.8884 0.814 37.4311 0.814C38.9564 0.814 40.1264 1.26467 40.9411 2.166C41.7557 3.06733 42.1631 4.41933 42.1631 6.222V12.774C42.1631 14.5593 41.7557 15.9027 40.9411 16.804C40.1264 17.7053 38.9564 18.156 37.4311 18.156ZM37.4311 15.66C38.1071 15.66 38.6097 15.426 38.9391 14.958C39.2857 14.49 39.4591 13.7187 39.4591 12.644V6.352C39.4591 5.26 39.2857 4.48 38.9391 4.012C38.6097 3.544 38.1071 3.31 37.4311 3.31C36.7551 3.31 36.2437 3.544 35.8971 4.012C35.5677 4.48 35.4031 5.26 35.4031 6.352V12.644C35.4031 13.7187 35.5677 14.49 35.8971 14.958C36.2437 15.426 36.7551 15.66 37.4311 15.66ZM44.4405 18C44.2672 18 44.1805 17.9047 44.1805 17.714V1.256C44.1805 1.06533 44.2672 0.969999 44.4405 0.969999H46.6505C46.8238 0.969999 46.9105 1.06533 46.9105 1.256V8.068H50.7845V1.256C50.7845 1.06533 50.8625 0.969999 51.0185 0.969999H53.2285C53.4018 0.969999 53.4885 1.06533 53.4885 1.256V17.714C53.4885 17.9047 53.4018 18 53.2285 18H51.0185C50.8625 18 50.7845 17.9047 50.7845 17.714V10.512H46.9105V17.714C46.9105 17.9047 46.8238 18 46.6505 18H44.4405ZM55.9932 18C55.8199 18 55.7332 17.9047 55.7332 17.714V1.256C55.7332 1.06533 55.8112 0.969999 55.9672 0.969999H62.8832C63.0392 0.969999 63.1172 1.06533 63.1172 1.256V3.154C63.1172 3.34467 63.0392 3.44 62.8832 3.44H58.4632V8.172H62.4932C62.6492 8.172 62.7272 8.26733 62.7272 8.458V10.252C62.7272 10.4427 62.6492 10.538 62.4932 10.538H58.4632V15.53H62.8832C63.0392 15.53 63.1172 15.6253 63.1172 15.816V17.714C63.1172 17.9047 63.0392 18 62.8832 18H55.9932ZM65.3872 18C65.2312 18 65.1532 17.9047 65.1532 17.714V1.256C65.1532 1.06533 65.2312 0.969999 65.3872 0.969999H68.9232C70.5698 0.969999 71.7745 1.36867 72.5372 2.166C73.2998 2.946 73.6812 4.18533 73.6812 5.884C73.6812 7.14933 73.4992 8.16333 73.1352 8.926C72.7885 9.67133 72.2858 10.2 71.6272 10.512L71.6012 10.538L74.3052 17.662C74.3572 17.8873 74.2878 18 74.0972 18H71.6532C71.5318 18 71.4452 17.9393 71.3932 17.818L69.0532 11.058H67.8832V17.714C67.8832 17.9047 67.8052 18 67.6492 18H65.3872ZM67.8832 8.744H68.9492C69.6598 8.744 70.1712 8.51867 70.4832 8.068C70.7952 7.61733 70.9512 6.93267 70.9512 6.014C70.9512 5.11267 70.7865 4.46267 70.4572 4.064C70.1278 3.648 69.6078 3.44 68.8972 3.44H67.8832V8.744ZM76.0772 18C75.9039 18 75.8172 17.9047 75.8172 17.714V1.256C75.8172 1.06533 75.8952 0.969999 76.0512 0.969999H82.9672C83.1232 0.969999 83.2012 1.06533 83.2012 1.256V3.154C83.2012 3.34467 83.1232 3.44 82.9672 3.44H78.5472V8.172H82.5772C82.7332 8.172 82.8112 8.26733 82.8112 8.458V10.252C82.8112 10.4427 82.7332 10.538 82.5772 10.538H78.5472V15.53H82.9672C83.1232 15.53 83.2012 15.6253 83.2012 15.816V17.714C83.2012 17.9047 83.1232 18 82.9672 18H76.0772ZM85.4711 18C85.3151 18 85.2371 17.9047 85.2371 17.714V1.256C85.2371 1.06533 85.3151 0.969999 85.4711 0.969999H88.4611C88.5998 0.969999 88.6865 1.03933 88.7211 1.178L91.0871 9.758C91.2085 10.1913 91.3298 10.6767 91.4511 11.214C91.5898 11.7513 91.7198 12.2973 91.8411 12.852C91.9798 13.3893 92.0838 13.866 92.1531 14.282H92.2051C92.1878 13.9353 92.1618 13.5367 92.1271 13.086C92.1098 12.618 92.0838 12.1413 92.0491 11.656C92.0318 11.1533 92.0145 10.6767 91.9971 10.226C91.9971 9.758 91.9971 9.35067 91.9971 9.004V1.23C91.9971 1.05667 92.0751 0.969999 92.2311 0.969999H94.3371C94.4931 0.969999 94.5711 1.05667 94.5711 1.23V17.714C94.5711 17.9047 94.4931 18 94.3371 18H91.3731C91.2518 18 91.1651 17.9393 91.1131 17.818L88.7471 9.42C88.5218 8.60533 88.3225 7.79933 88.1491 7.002C87.9758 6.18733 87.8198 5.43333 87.6811 4.74H87.6291C87.6638 5.24267 87.6898 5.832 87.7071 6.508C87.7418 7.184 87.7678 7.86 87.7851 8.536C87.8025 9.19467 87.8111 9.77533 87.8111 10.278V17.714C87.8111 17.9047 87.7418 18 87.6031 18H85.4711ZM101.339 18.156C99.7966 18.156 98.6179 17.7053 97.8033 16.804C97.0059 15.8853 96.6073 14.464 96.6073 12.54V6.43C96.6073 4.558 97.0059 3.154 97.8033 2.218C98.6179 1.282 99.7966 0.814 101.339 0.814C102.414 0.814 103.315 1.05667 104.043 1.542C104.771 2.02733 105.291 2.712 105.603 3.596C105.933 4.48 106.028 5.52 105.889 6.716C105.855 6.88933 105.777 6.976 105.655 6.976H103.393C103.22 6.976 103.151 6.88067 103.185 6.69C103.272 5.58067 103.168 4.74 102.873 4.168C102.579 3.596 102.059 3.31 101.313 3.31C100.637 3.31 100.135 3.56133 99.8053 4.064C99.4759 4.56667 99.3113 5.39 99.3113 6.534V12.384C99.3113 13.5627 99.4759 14.4033 99.8053 14.906C100.152 15.4087 100.663 15.66 101.339 15.66C102.119 15.66 102.639 15.3567 102.899 14.75C103.159 14.126 103.263 13.3027 103.211 12.28C103.194 12.072 103.263 11.968 103.419 11.968H105.629C105.785 11.968 105.881 12.072 105.915 12.28C106.054 14.1 105.733 15.5387 104.953 16.596C104.191 17.636 102.986 18.156 101.339 18.156ZM108.196 18C108.023 18 107.936 17.9047 107.936 17.714V1.256C107.936 1.06533 108.014 0.969999 108.17 0.969999H115.086C115.242 0.969999 115.32 1.06533 115.32 1.256V3.154C115.32 3.34467 115.242 3.44 115.086 3.44H110.666V8.172H114.696C114.852 8.172 114.93 8.26733 114.93 8.458V10.252C114.93 10.4427 114.852 10.538 114.696 10.538H110.666V15.53H115.086C115.242 15.53 115.32 15.6253 115.32 15.816V17.714C115.32 17.9047 115.242 18 115.086 18H108.196Z" fill="#09B6D1"/>
</svg>
